<svg width="55" height="30" viewBox="0 0 55 30" fill="none" xmlns="http://www.w3.org/2000/svg">
<path d="M54.1047 15.112L39.5527 0.748047L33.3025 6.89642L35.4039 8.96362L39.5527 4.88044L49.9537 15.112L39.5527 25.3436L35.4039 21.2604L33.3025 19.1952L29.1516 15.112L33.3025 11.0288L31.201 8.96362L27.0522 13.0448L22.9014 8.96362L20.852 6.89642L14.6018 0.748047L0 15.112L14.6018 29.4247L20.852 23.3276L18.7527 21.2604L14.6018 25.3436L4.20083 15.112L14.6018 4.88044L25.0029 15.112L20.852 19.1952L22.9014 21.2604L27.0522 17.1792L33.3025 23.3276L39.5527 29.4247" fill="#00CEA6"/>
<path d="M27.0518 4.88044L31.2005 8.96362L37.4508 15.112L33.302 19.1932L35.4014 21.2604L41.6536 15.112L35.4014 8.96362L33.302 6.89642L27.0518 0.748047L20.8516 6.89642L22.9009 8.96362" fill="#024A6C"/>
<path d="M31.2006 21.2606L27.0518 25.3438L22.901 21.2606L20.8516 19.1935L16.7029 15.1122L20.8516 11.031L18.7523 8.96387L12.5 15.1122L18.7523 21.2606L20.8516 23.3278L27.0518 29.425L33.302 23.3278" fill="#024A6C"/>
</svg>
